<svg xmlns="http://www.w3.org/2000/svg" viewBox="0 0 600 600" role="img" aria-labelledby="title desc">
<title id="title">R&amp;E Multiservices</title>
<desc id="desc">Logotipo circular dorado, plateado y negro de R&amp;E Multiservices</desc>
<defs>
  <linearGradient id="gold" x1="0" y1="0" x2="1" y2="1">
    <stop offset="0" stop-color="#8f6413"/>
    <stop offset=".35" stop-color="#f5d675"/>
    <stop offset=".68" stop-color="#c89326"/>
    <stop offset="1" stop-color="#7b5110"/>
  </linearGradient>
  <linearGradient id="silver" x1="0" y1="0" x2="1" y2="1">
    <stop offset="0" stop-color="#6f7378"/>
    <stop offset=".35" stop-color="#f3f5f6"/>
    <stop offset=".7" stop-color="#aeb3b7"/>
    <stop offset="1" stop-color="#5f6368"/>
  </linearGradient>
  <filter id="shadow" x="-30%" y="-30%" width="160%" height="160%">
    <feDropShadow dx="0" dy="8" stdDeviation="9" flood-color="#000" flood-opacity=".55"/>
  </filter>
</defs>
<circle cx="300" cy="300" r="280" fill="#090909" stroke="url(#gold)" stroke-width="8"/>
<path d="M105 412C45 298 95 126 235 60C331 15 459 42 527 134" fill="none" stroke="url(#gold)" stroke-width="24" stroke-linecap="round"/>
<path d="M527 134C590 245 555 405 439 498C356 565 231 574 138 512" fill="none" stroke="url(#silver)" stroke-width="18" stroke-linecap="round"/>
<g filter="url(#shadow)">
  <text x="300" y="280" text-anchor="middle" font-family="Georgia,serif" font-weight="700" font-size="160">
    <tspan fill="url(#gold)">R</tspan><tspan fill="#d5b45a" font-size="92">&amp;</tspan><tspan fill="url(#silver)">E</tspan>
  </text>
</g>
<g fill="url(#gold)">
  <rect x="182" y="330" width="44" height="90" rx="3"/>
  <rect x="235" y="302" width="48" height="118" rx="3"/>
  <rect x="294" y="342" width="40" height="78" rx="3"/>
  <path d="M340 420V350L410 295L480 350V420Z"/>
  <rect x="395" y="368" width="30" height="52" fill="#090909"/>
  <rect x="445" y="358" width="20" height="20" fill="#090909"/>
</g>
<path d="M130 441C228 402 330 430 470 397" fill="none" stroke="url(#silver)" stroke-width="10" stroke-linecap="round"/>
<text x="300" y="485" text-anchor="middle" font-family="Arial,sans-serif" font-weight="700" font-size="34" letter-spacing="4" fill="url(#gold)">R&amp;E MULTISERVICES</text>
<line x1="145" y1="512" x2="455" y2="512" stroke="#c99b3a" stroke-width="2"/>
<text x="300" y="540" text-anchor="middle" font-family="Arial,sans-serif" font-size="15" letter-spacing="1.5" fill="#d8bd72">SOLUCIONES QUE CONECTAN · SERVICIOS QUE TRANSFORMAN</text>
</svg>